<?xml version="1.0"?>

<svg xmlns="http://www.w3.org/2000/svg" version="1.1" width="800" height="500">

  <style>

    text {
      font-family: monospace;
      font-size: 20px;
    }

  </style>

  <rect x="0" y="0" width="800" height="500" fill="#6e6e6e" rx="35" ry="35"/>

  <g transform="translate(50,50)">
    <rect x="0" y="0" width="350" height="50" fill="#000"/>
    <text x="20" y="30" fill="#fff">Obsidian</text>
    <text x="175" y="30" fill="#fff" text-anchor="middle">0</text>
    <text x="330" y="30" fill="#fff" text-anchor="end">#000000</text>
  </g>

  <g transform="translate(400,50)">
    <rect x="0" y="0" width="350" height="50" fill="#1c1c1c"/>
    <text x="20" y="30" fill="#fff">Charcoal</text>
    <text x="175" y="30" fill="#fff" text-anchor="middle">8</text>
    <text x="330" y="30" fill="#fff" text-anchor="end">#1c1c1c</text>
  </g>

  <g transform="translate(50,350)">
    <rect x="0" y="0" width="350" height="50" fill="#626262"/>
    <text x="20" y="30" fill="#fff">Stone</text>
    <text x="175" y="30" fill="#fff" text-anchor="middle">6</text>
    <text x="330" y="30" fill="#fff" text-anchor="end">#626262</text>
  </g>

  <g transform="translate(50,400)">
    <rect x="0" y="0" width="350" height="50" fill="#949494"/>
    <text x="20" y="30" fill="#fff">Ash</text>
    <text x="175" y="30" fill="#fff" text-anchor="middle">7</text>
    <text x="330" y="30" fill="#fff" text-anchor="end">#949494</text>
  </g>

  <g transform="translate(400,400)">
    <rect x="0" y="0" width="350" height="50" fill="#fff"/>
    <text x="20" y="30" fill="#000">Snow</text>
    <text x="175" y="30" fill="#000" text-anchor="middle">15</text>
    <text x="330" y="30" fill="#000" text-anchor="end">#ffffff</text>
  </g>

  <g transform="translate(400,200)">
    <rect x="0" y="0" width="350" height="50" fill="#ffe082"/>
    <text x="20" y="30" fill="#000">Sap</text>
    <text x="175" y="30" fill="#000" text-anchor="middle">11</text>
    <text x="330" y="30" fill="#000" text-anchor="end">#ffe082</text>
  </g>

  <g transform="translate(400,250)">
    <rect x="0" y="0" width="350" height="50" fill="#039be5"/>
    <text x="20" y="30" fill="#fff">Sky</text>
    <text x="175" y="30" fill="#fff" text-anchor="middle">12</text>
    <text x="330" y="30" fill="#fff" text-anchor="end">#039be5</text>
  </g>

  <g transform="translate(50,250)">
    <rect x="0" y="0" width="350" height="50" fill="#01579b"/>
    <text x="20" y="30" fill="#fff">Lake</text>
    <text x="175" y="30" fill="#fff" text-anchor="middle">4</text>
    <text x="330" y="30" fill="#fff" text-anchor="end">#01579b</text>
  </g>

  <g transform="translate(50,150)">
    <rect x="0" y="0" width="350" height="50" fill="#36661e"/>
    <text x="20" y="30" fill="#fff">Moss</text>
    <text x="175" y="30" fill="#fff" text-anchor="middle">2</text>
    <text x="330" y="30" fill="#fff" text-anchor="end">#36661e</text>
  </g>

  <g transform="translate(400,150)">
    <rect x="0" y="0" width="350" height="50" fill="#57852f"/>
    <text x="20" y="30" fill="#fff">Fern</text>
    <text x="175" y="30" fill="#fff" text-anchor="middle">10</text>
    <text x="330" y="30" fill="#fff" text-anchor="end">#57852f</text>
  </g>

  <g transform="translate(400,350)">
    <rect x="0" y="0" width="350" height="50" fill="#616616"/>
    <text x="20" y="30" fill="#fff">Leaf</text>
    <text x="175" y="30" fill="#fff" text-anchor="middle">14</text>
    <text x="330" y="30" fill="#fff" text-anchor="end">#616616</text>
  </g>

  <g transform="translate(50,200)">
    <rect x="0" y="0" width="350" height="50" fill="#909423"/>
    <text x="20" y="30" fill="#fff">Grass</text>
    <text x="175" y="30" fill="#fff" text-anchor="middle">3</text>
    <text x="330" y="30" fill="#fff" text-anchor="end">#909423</text>
  </g>

  <g transform="translate(400,300)">
    <rect x="0" y="0" width="350" height="50" fill="#a17565"/>
    <text x="20" y="30" fill="#fff">Cone</text>
    <text x="175" y="30" fill="#fff" text-anchor="middle">13</text>
    <text x="330" y="30" fill="#fff" text-anchor="end">#a17565</text>
  </g>

  <g transform="translate(50,300)">
    <rect x="0" y="0" width="350" height="50" fill="#795e48"/>
    <text x="20" y="30" fill="#fff">Wood</text>
    <text x="175" y="30" fill="#fff" text-anchor="middle">5</text>
    <text x="330" y="30" fill="#fff" text-anchor="end">#795e48</text>
  </g>

  <g transform="translate(400,100)">
    <rect x="0" y="0" width="350" height="50" fill="#884c41"/>
    <text x="20" y="30" fill="#fff">Bark</text>
    <text x="175" y="30" fill="#fff" text-anchor="middle">9</text>
    <text x="330" y="30" fill="#fff" text-anchor="end">#884c41</text>
  </g>

  <g transform="translate(50,100)">
    <rect x="0" y="0" width="350" height="50" fill="#5f3229"/>
    <text x="20" y="30" fill="#fff">Soil</text>
    <text x="175" y="30" fill="#fff" text-anchor="middle">1</text>
    <text x="330" y="30" fill="#fff" text-anchor="end">#5f3229</text>
  </g>

</svg>
